<svg xmlns="http://www.w3.org/2000/svg" xmlns:xlink="http://www.w3.org/1999/xlink" width="500" zoomAndPan="magnify" viewBox="0 0 375 374.999991" height="500" preserveAspectRatio="xMidYMid meet" version="1.0"><defs><g><g id="id1"/></g></defs><rect x="-37.5" width="450" fill="rgb(100%, 100%, 100%)" y="-37.499999" height="449.999989" fill-opacity="1"/><rect x="-37.5" width="450" fill="rgb(100%, 100%, 100%)" y="-37.499999" height="449.999989" fill-opacity="1"/><rect x="-37.5" width="450" fill="rgb(100%, 100%, 100%)" y="-37.499999" height="449.999989" fill-opacity="1"/><rect x="-37.5" width="450" fill="rgb(100%, 100%, 100%)" y="-37.499999" height="449.999989" fill-opacity="1"/><path fill="rgb(21.958923%, 71.369934%, 100%)" d="M 187.027344 0 C 131.941406 0 87.289062 44.652344 87.289062 99.738281 C 87.289062 154.820312 131.941406 199.476562 187.027344 199.476562 C 242.109375 199.476562 286.761719 154.820312 286.761719 99.738281 C 286.761719 44.652344 242.109375 0 187.027344 0 " fill-opacity="1" fill-rule="nonzero"/><path fill="rgb(21.958923%, 71.369934%, 100%)" d="M 187.027344 175.523438 C 131.941406 175.523438 87.289062 220.179688 87.289062 275.261719 C 87.289062 330.347656 131.941406 375 187.027344 375 C 242.109375 375 286.761719 330.347656 286.761719 275.261719 C 286.761719 220.179688 242.109375 175.523438 187.027344 175.523438 " fill-opacity="1" fill-rule="nonzero"/><g fill="rgb(5.488586%, 9.408569%, 37.249756%)" fill-opacity="1"><g transform="translate(114.405299, 203.612634)"><g><path d="M 19.125 -8.25 L 19.125 0 L 14.9375 0 C 7.84375 0 4.296875 -3.507812 4.296875 -10.53125 L 4.296875 -19.671875 L 0.890625 -19.671875 L 0.890625 -27.734375 L 4.296875 -27.734375 L 4.296875 -34.453125 L 14.046875 -34.453125 L 14.046875 -27.734375 L 19.078125 -27.734375 L 19.078125 -19.671875 L 14.046875 -19.671875 L 14.046875 -10.375 C 14.046875 -9.625 14.21875 -9.082031 14.5625 -8.75 C 14.90625 -8.414062 15.488281 -8.25 16.3125 -8.25 Z M 19.125 -8.25 "/></g></g></g><g fill="rgb(5.488586%, 9.408569%, 37.249756%)" fill-opacity="1"><g transform="translate(135.216383, 203.612634)"><g><path d="M 21.015625 -27.984375 C 24.171875 -27.984375 26.679688 -26.921875 28.546875 -24.796875 C 30.410156 -22.671875 31.34375 -19.796875 31.34375 -16.171875 L 31.34375 0 L 21.65625 0 L 21.65625 -14.875 C 21.65625 -16.457031 21.242188 -17.703125 20.421875 -18.609375 C 19.597656 -19.515625 18.492188 -19.96875 17.109375 -19.96875 C 15.660156 -19.96875 14.519531 -19.515625 13.6875 -18.609375 C 12.863281 -17.703125 12.453125 -16.457031 12.453125 -14.875 L 12.453125 0 L 2.765625 0 L 2.765625 -36.578125 L 12.453125 -36.578125 L 12.453125 -23.78125 C 13.316406 -25.03125 14.476562 -26.039062 15.9375 -26.8125 C 17.40625 -27.59375 19.097656 -27.984375 21.015625 -27.984375 Z M 21.015625 -27.984375 "/></g></g></g><g fill="rgb(5.488586%, 9.408569%, 37.249756%)" fill-opacity="1"><g transform="translate(169.127075, 203.612634)"><g><path d="M 7.65625 -30.3125 C 5.945312 -30.3125 4.570312 -30.78125 3.53125 -31.71875 C 2.5 -32.65625 1.984375 -33.832031 1.984375 -35.25 C 1.984375 -36.695312 2.5 -37.898438 3.53125 -38.859375 C 4.570312 -39.816406 5.945312 -40.296875 7.65625 -40.296875 C 9.34375 -40.296875 10.703125 -39.816406 11.734375 -38.859375 C 12.773438 -37.898438 13.296875 -36.695312 13.296875 -35.25 C 13.296875 -33.832031 12.773438 -32.65625 11.734375 -31.71875 C 10.703125 -30.78125 9.34375 -30.3125 7.65625 -30.3125 Z M 12.453125 -27.734375 L 12.453125 0 L 2.765625 0 L 2.765625 -27.734375 Z M 12.453125 -27.734375 "/></g></g></g><g fill="rgb(5.488586%, 9.408569%, 37.249756%)" fill-opacity="1"><g transform="translate(184.352283, 203.612634)"><g><path d="M 12.453125 -22.84375 C 13.546875 -24.425781 14.863281 -25.675781 16.40625 -26.59375 C 17.957031 -27.519531 19.625 -27.984375 21.40625 -27.984375 L 21.40625 -17.65625 L 18.6875 -17.65625 C 16.570312 -17.65625 15.003906 -17.238281 13.984375 -16.40625 C 12.960938 -15.582031 12.453125 -14.148438 12.453125 -12.109375 L 12.453125 0 L 2.765625 0 L 2.765625 -27.734375 L 12.453125 -27.734375 Z M 12.453125 -22.84375 "/></g></g></g><g fill="rgb(5.488586%, 9.408569%, 37.249756%)" fill-opacity="1"><g transform="translate(206.448611, 203.612634)"><g><path d="M 19.125 -8.25 L 19.125 0 L 14.9375 0 C 7.84375 0 4.296875 -3.507812 4.296875 -10.53125 L 4.296875 -19.671875 L 0.890625 -19.671875 L 0.890625 -27.734375 L 4.296875 -27.734375 L 4.296875 -34.453125 L 14.046875 -34.453125 L 14.046875 -27.734375 L 19.078125 -27.734375 L 19.078125 -19.671875 L 14.046875 -19.671875 L 14.046875 -10.375 C 14.046875 -9.625 14.21875 -9.082031 14.5625 -8.75 C 14.90625 -8.414062 15.488281 -8.25 16.3125 -8.25 Z M 19.125 -8.25 "/></g></g></g><g fill="rgb(5.488586%, 9.408569%, 37.249756%)" fill-opacity="1"><g transform="translate(227.259695, 203.612634)"><g><path d="M 32.625 -27.734375 L 15.03125 13.203125 L 4.5 13.203125 L 11.125 -1.1875 L -0.25 -27.734375 L 10.53125 -27.734375 L 16.359375 -12.015625 L 22 -27.734375 Z M 32.625 -27.734375 "/></g></g></g></svg>